<svg width="740" height="228" viewBox="0 0 740 228" fill="none" xmlns="http://www.w3.org/2000/svg">
<g clip-path="url(#clip0_3_2)">
<g clip-path="url(#clip1_3_2)">
<path d="M717.135 0H22.857C10.2326 0 -0.00140381 10.2341 -0.00140381 22.8584V204.834C-0.00140381 217.458 10.2326 227.692 22.857 227.692H717.135C729.76 227.692 739.994 217.458 739.994 204.834V22.8584C739.994 10.2341 729.76 0 717.135 0Z" fill="#FA5C5C"/>
<path d="M68.0673 33.4334C60.1682 38.12 44.6155 55.9895 44.4681 60.676V68.4354C44.4681 78.2696 53.6599 86.9133 62.005 86.9133C72.0244 86.9133 80.3734 78.606 80.3734 68.749C80.3734 78.606 88.4388 86.9133 98.462 86.9133C108.481 86.9133 116.286 78.606 116.286 68.749C116.286 78.606 124.862 86.9133 134.881 86.9133H135.063C145.086 86.9133 153.658 78.606 153.658 68.749C153.658 78.606 161.466 86.9133 171.486 86.9133C181.509 86.9133 189.571 78.606 189.571 68.749C189.571 78.606 197.923 86.9133 207.943 86.9133C216.288 86.9133 225.48 78.2696 225.48 68.4316V60.676C225.332 55.9895 209.776 38.12 201.88 33.4334C177.34 32.5717 160.329 32.4205 134.972 32.4243C109.619 32.4243 75.0518 32.8212 68.0673 33.4334ZM116.161 82.2796C115.203 83.9509 114.016 85.4799 112.635 86.8226C108.714 90.6669 103.44 92.8181 97.948 92.8131C92.448 92.8175 87.1655 90.6654 83.2344 86.8188C81.9057 85.5026 80.7718 84.0034 79.8669 82.3666L79.8631 82.3704C78.9107 84.0447 77.5803 85.4809 76.2084 86.8264C72.2744 90.6701 66.991 92.8193 61.491 92.8131C60.813 92.7902 60.1431 92.6588 59.5068 92.4238C58.8133 99.8238 58.391 107.247 58.2406 114.678V114.711L58.1953 123.514C58.3465 141.115 56.4529 180.562 65.9546 190.256C80.6833 193.688 107.782 195.253 134.968 195.264H134.976C162.162 195.253 189.264 193.688 203.989 190.256C213.495 180.562 211.597 141.115 211.752 123.51L211.707 114.711V114.674C211.557 107.244 211.135 99.8225 210.441 92.4238C209.805 92.6589 209.135 92.7904 208.457 92.8131C202.956 92.8183 197.673 90.6677 193.739 86.8226C192.367 85.4771 191.037 84.0447 190.085 82.3704C189.179 84.0045 188.041 85.5011 186.713 86.815C182.782 90.662 177.5 92.8141 172 92.8093C166.508 92.8138 161.234 90.6628 157.313 86.8188C155.931 85.4762 154.744 83.947 153.786 82.2758C152.839 83.9451 151.664 85.4742 150.294 86.8188C146.362 90.6663 141.078 92.8185 135.577 92.8131C135.378 92.8118 135.178 92.8068 134.98 92.798H134.972C134.775 92.798 134.575 92.8131 134.375 92.8131C128.874 92.8185 123.589 90.6663 119.657 86.8188C118.287 85.4756 117.11 83.9478 116.161 82.2796ZM101.047 101.82V101.831H101.059C107.041 101.842 112.359 101.831 118.947 109.02C124.271 108.47 129.62 108.201 134.972 108.215C140.324 108.202 145.673 108.471 150.997 109.02C157.588 101.831 162.902 101.839 168.889 101.831H168.901V101.823C171.728 101.823 183.036 101.823 190.92 123.96L199.386 154.328C205.66 176.918 197.375 177.47 187.046 177.493C171.724 176.922 163.243 165.795 163.243 154.668C154.761 156.059 144.867 156.755 134.972 156.755C125.077 156.755 115.183 156.059 106.701 154.668C106.701 165.795 98.2201 176.922 82.8981 177.493C72.5687 177.47 64.2878 176.918 70.5618 154.324L79.0279 123.96C86.9119 101.823 98.2201 101.823 101.047 101.823V101.82ZM134.972 119.22C134.957 119.239 118.841 134.036 115.946 139.301L126.498 138.878V148.081C126.498 148.512 130.731 148.334 134.972 148.137C139.213 148.334 143.449 148.512 143.449 148.081V138.878L154.002 139.301C151.103 134.04 134.976 119.224 134.976 119.224L134.972 119.22Z" fill="white" fill-opacity="0.5"/>
<path d="M286.689 189.965V116.322H311.535V189.965H286.689ZM299.263 110.331C295.07 110.331 291.826 109.284 289.531 107.19C287.336 105.094 286.239 102.3 286.239 98.8074C286.239 95.5142 287.336 92.7199 289.531 90.4245C291.826 88.1316 295.069 86.9851 299.259 86.9851C303.452 86.9851 306.646 88.1316 308.84 90.4245C311.136 92.7174 312.283 95.5117 312.283 98.8074C312.283 102.3 311.137 105.094 308.844 107.19C306.647 109.284 303.453 110.331 299.263 110.331ZM348.612 191.462C341.426 191.462 335.986 189.566 332.292 185.774C328.701 181.883 326.906 176.495 326.906 169.609V134.732H317.027V116.318H326.906V98.3576H351.753V116.322H367.921V134.728H351.753V166.014C351.753 168.31 352.201 169.956 353.098 170.954C354.096 171.854 355.593 172.303 357.588 172.303C360.284 172.303 363.228 171.105 366.421 168.709L372.109 185.025C369.216 187.023 365.923 188.62 362.229 189.814C358.538 190.915 353.999 191.462 348.612 191.462ZM409.726 191.462C398.35 191.462 389.369 188.219 382.782 181.733C376.297 175.248 373.054 165.818 373.054 153.444C373.054 144.461 374.899 136.927 378.591 130.842C382.383 124.553 387.125 120.311 392.817 118.117C398.804 115.821 404.343 114.674 409.435 114.674C415.82 114.674 421.159 115.971 425.453 118.567C429.744 121.061 432.887 123.805 434.883 126.798C436.981 129.792 438.478 132.136 439.373 133.832L422.161 144.91C420.568 141.616 418.822 139.021 416.922 137.124C415.028 135.229 412.735 134.282 410.044 134.282C406.249 134.282 403.256 135.778 401.064 138.772C398.869 141.765 397.772 146.306 397.772 152.393C397.772 158.979 399.069 163.82 401.665 166.914C404.255 170.008 407.946 171.555 412.739 171.555C416.533 171.555 419.676 170.856 422.168 169.458C424.764 168.057 427.209 166.26 429.504 164.068L437.441 182.625C435.045 184.618 431.501 186.615 426.81 188.616C422.12 190.508 416.432 191.454 409.745 191.454L409.726 191.462ZM445.881 189.965V89.9747H470.879V120.362C472.972 118.865 475.517 117.568 478.513 116.469C481.506 115.272 485.098 114.674 489.288 114.674C498.07 114.674 504.605 117.168 508.896 122.157C513.288 127.151 515.484 134.188 515.484 143.269V189.973H490.487V146.259C490.487 142.071 489.689 139.028 488.094 137.128C486.502 135.135 484.407 134.138 481.809 134.138C479.614 134.138 477.567 134.638 475.667 135.639C473.775 136.636 472.179 137.686 470.879 138.787V189.98H445.881V189.965ZM534.676 191.462C530.685 191.462 527.542 190.315 525.247 188.022C522.954 185.727 521.807 182.783 521.807 179.19C521.807 175.597 522.954 172.603 525.247 170.21C527.542 167.816 530.685 166.619 534.676 166.619C538.469 166.619 541.512 167.816 543.808 170.21C546.106 172.603 547.255 175.597 547.255 179.19C547.255 182.783 546.108 185.726 543.815 188.019C541.623 190.314 538.579 191.462 534.684 191.462H534.676ZM553.06 189.965V116.322H577.906V189.965H553.06ZM565.627 110.346C561.437 110.346 558.194 109.298 555.898 107.202C553.704 105.108 552.606 102.315 552.606 98.8225C552.606 95.5293 553.702 92.735 555.895 90.4396C558.192 88.1442 561.437 86.9965 565.627 86.9965C569.819 86.9965 573.013 88.1429 575.208 90.4358C577.501 92.7338 578.647 95.5293 578.647 98.8225C578.647 102.315 577.501 105.108 575.208 107.202C573.013 109.298 569.819 110.346 565.627 110.346ZM621.783 191.462C615.995 191.462 610.855 190.514 606.362 188.62C601.872 186.624 598.031 183.929 594.838 180.535C591.747 177.043 589.353 172.952 587.657 168.263C586.057 163.473 585.257 158.283 585.257 152.692C585.257 144.412 587.054 137.178 590.647 130.99C594.341 124.902 598.932 120.662 604.419 118.268C610.008 115.872 615.796 114.674 621.783 114.674C630.362 114.674 637.445 116.669 643.031 120.66C648.718 124.652 652.711 129.641 655.012 135.627C657.305 141.617 658.451 147.306 658.451 152.695C658.451 158.282 657.602 163.471 655.904 168.263C654.309 172.95 651.913 177.04 648.715 180.535C645.621 183.929 641.779 186.625 637.188 188.623C632.698 190.521 627.558 191.469 621.767 191.469L621.783 191.462ZM621.783 172.3C625.973 172.3 629.016 170.555 630.914 167.065C632.809 163.472 633.756 158.682 633.756 152.695C633.756 147.006 632.758 142.466 630.763 139.074C628.77 135.68 625.776 133.983 621.783 133.983C617.89 133.983 614.947 135.68 612.954 139.074C610.961 142.466 609.964 147.006 609.964 152.695C609.964 158.682 610.913 163.471 612.81 167.061C614.811 170.556 617.804 172.303 621.79 172.303L621.783 172.3Z" fill="white"/>
<path d="M349.739 54.2559C347.803 54.3464 346.174 54.5183 344.854 54.7716C343.533 55.0068 342.474 55.3144 341.678 55.6944C340.882 56.0743 340.312 56.5176 339.968 57.0243C339.624 57.5309 339.453 58.0827 339.453 58.6798C339.453 59.8559 339.796 60.6973 340.484 61.2039C341.19 61.7105 342.103 61.9638 343.225 61.9638C344.6 61.9638 345.785 61.7196 346.78 61.2311C347.794 60.7244 348.78 59.9645 349.739 58.9512V54.2559ZM334.377 42.1784C337.58 39.2472 341.434 37.7816 345.939 37.7816C347.568 37.7816 349.024 38.053 350.309 38.5958C351.593 39.1205 352.679 39.8624 353.566 40.8213C354.452 41.7622 355.122 42.8931 355.574 44.2139C356.044 45.5348 356.28 46.9823 356.28 48.5564V66.1435H353.24C352.607 66.1435 352.118 66.053 351.774 65.8721C351.431 65.6731 351.159 65.284 350.96 64.705L350.363 62.6966C349.657 63.3299 348.97 63.8908 348.3 64.3794C347.631 64.8498 346.934 65.2479 346.211 65.5735C345.487 65.8992 344.709 66.1435 343.876 66.3063C343.062 66.4873 342.158 66.5777 341.162 66.5777C339.986 66.5777 338.901 66.4239 337.906 66.1164C336.91 65.7907 336.051 65.3112 335.327 64.6779C334.603 64.0446 334.043 63.2575 333.644 62.3167C333.246 61.3758 333.047 60.2811 333.047 59.0327C333.047 58.327 333.165 57.6304 333.4 56.9428C333.635 56.2372 334.015 55.5677 334.54 54.9344C335.083 54.3012 335.78 53.7041 336.63 53.1432C337.48 52.5823 338.521 52.0937 339.751 51.6776C341 51.2614 342.447 50.9267 344.094 50.6734C345.74 50.402 347.622 50.2391 349.739 50.1848V48.5564C349.739 46.6928 349.341 45.3176 348.545 44.431C347.748 43.5264 346.6 43.074 345.098 43.074C344.012 43.074 343.107 43.2007 342.384 43.454C341.678 43.7073 341.054 43.9968 340.511 44.3225C339.968 44.6301 339.471 44.9105 339.018 45.1638C338.584 45.4171 338.096 45.5438 337.553 45.5438C337.082 45.5438 336.684 45.4262 336.359 45.191C336.033 44.9377 335.77 44.6482 335.571 44.3225L334.377 42.1784ZM387.062 38.2973L376.016 66.1435H369.936L358.89 38.2973H364.427C364.934 38.2973 365.35 38.4149 365.675 38.6501C366.019 38.8853 366.245 39.1839 366.354 39.5457L371.728 54.4188C372.017 55.2873 372.271 56.1377 372.488 56.97C372.705 57.8023 372.895 58.6346 373.058 59.4669C373.239 58.6346 373.438 57.8023 373.655 56.97C373.872 56.1377 374.134 55.2873 374.442 54.4188L379.924 39.5457C380.051 39.1839 380.277 38.8853 380.603 38.6501C380.928 38.4149 381.317 38.2973 381.77 38.2973H387.062ZM404.656 54.2559C402.72 54.3464 401.092 54.5183 399.771 54.7716C398.45 55.0068 397.391 55.3144 396.595 55.6944C395.799 56.0743 395.229 56.5176 394.885 57.0243C394.542 57.5309 394.37 58.0827 394.37 58.6798C394.37 59.8559 394.714 60.6973 395.401 61.2039C396.107 61.7105 397.02 61.9638 398.142 61.9638C399.517 61.9638 400.703 61.7196 401.698 61.2311C402.711 60.7244 403.697 59.9645 404.656 58.9512V54.2559ZM389.294 42.1784C392.497 39.2472 396.351 37.7816 400.856 37.7816C402.485 37.7816 403.941 38.053 405.226 38.5958C406.511 39.1205 407.596 39.8624 408.483 40.8213C409.369 41.7622 410.039 42.8931 410.491 44.2139C410.962 45.5348 411.197 46.9823 411.197 48.5564V66.1435H408.157C407.524 66.1435 407.035 66.053 406.692 65.8721C406.348 65.6731 406.076 65.284 405.877 64.705L405.28 62.6966C404.575 63.3299 403.887 63.8908 403.218 64.3794C402.548 64.8498 401.852 65.2479 401.128 65.5735C400.404 65.8992 399.626 66.1435 398.794 66.3063C397.979 66.4873 397.075 66.5777 396.08 66.5777C394.904 66.5777 393.818 66.4239 392.823 66.1164C391.828 65.7907 390.968 65.3112 390.244 64.6779C389.521 64.0446 388.96 63.2575 388.562 62.3167C388.164 61.3758 387.965 60.2811 387.965 59.0327C387.965 58.327 388.082 57.6304 388.317 56.9428C388.553 56.2372 388.933 55.5677 389.457 54.9344C390 54.3012 390.697 53.7041 391.547 53.1432C392.398 52.5823 393.438 52.0937 394.668 51.6776C395.917 51.2614 397.364 50.9267 399.011 50.6734C400.657 50.402 402.539 50.2391 404.656 50.1848V48.5564C404.656 46.6928 404.258 45.3176 403.462 44.431C402.666 43.5264 401.517 43.074 400.015 43.074C398.929 43.074 398.025 43.2007 397.301 43.454C396.595 43.7073 395.971 43.9968 395.428 44.3225C394.885 44.6301 394.388 44.9105 393.936 45.1638C393.501 45.4171 393.013 45.5438 392.47 45.5438C391.999 45.5438 391.601 45.4262 391.276 45.191C390.95 44.9377 390.688 44.6482 390.489 44.3225L389.294 42.1784ZM424.458 38.2973V66.1435H417.728V38.2973H424.458ZM425.381 30.1822C425.381 30.7612 425.264 31.3041 425.028 31.8107C424.793 32.3173 424.477 32.7606 424.079 33.1406C423.699 33.5205 423.246 33.8281 422.721 34.0633C422.197 34.2805 421.636 34.389 421.039 34.389C420.46 34.389 419.908 34.2805 419.383 34.0633C418.877 33.8281 418.433 33.5205 418.053 33.1406C417.673 32.7606 417.366 32.3173 417.131 31.8107C416.913 31.3041 416.805 30.7612 416.805 30.1822C416.805 29.5852 416.913 29.0242 417.131 28.4995C417.366 27.9748 417.673 27.5225 418.053 27.1425C418.433 26.7625 418.877 26.464 419.383 26.2469C419.908 26.0116 420.46 25.894 421.039 25.894C421.636 25.894 422.197 26.0116 422.721 26.2469C423.246 26.464 423.699 26.7625 424.079 27.1425C424.477 27.5225 424.793 27.9748 425.028 28.4995C425.264 29.0242 425.381 29.5852 425.381 30.1822ZM438.078 25.8126V66.1435H431.374V25.8126H438.078ZM459.467 54.2559C457.531 54.3464 455.903 54.5183 454.582 54.7716C453.261 55.0068 452.203 55.3144 451.407 55.6944C450.61 56.0743 450.04 56.5176 449.697 57.0243C449.353 57.5309 449.181 58.0827 449.181 58.6798C449.181 59.8559 449.525 60.6973 450.212 61.2039C450.918 61.7105 451.832 61.9638 452.954 61.9638C454.329 61.9638 455.514 61.7196 456.509 61.2311C457.522 60.7244 458.508 59.9645 459.467 58.9512V54.2559ZM444.106 42.1784C447.308 39.2472 451.162 37.7816 455.668 37.7816C457.296 37.7816 458.753 38.053 460.037 38.5958C461.322 39.1205 462.407 39.8624 463.294 40.8213C464.181 41.7622 464.85 42.8931 465.302 44.2139C465.773 45.5348 466.008 46.9823 466.008 48.5564V66.1435H462.968C462.335 66.1435 461.847 66.053 461.503 65.8721C461.159 65.6731 460.888 65.284 460.689 64.705L460.092 62.6966C459.386 63.3299 458.698 63.8908 458.029 64.3794C457.359 64.8498 456.663 65.2479 455.939 65.5735C455.215 65.8992 454.437 66.1435 453.605 66.3063C452.791 66.4873 451.886 66.5777 450.891 66.5777C449.715 66.5777 448.629 66.4239 447.634 66.1164C446.639 65.7907 445.779 65.3112 445.056 64.6779C444.332 64.0446 443.771 63.2575 443.373 62.3167C442.975 61.3758 442.776 60.2811 442.776 59.0327C442.776 58.327 442.893 57.6304 443.129 56.9428C443.364 56.2372 443.744 55.5677 444.269 54.9344C444.811 54.3012 445.508 53.7041 446.358 53.1432C447.209 52.5823 448.249 52.0937 449.48 51.6776C450.728 51.2614 452.176 50.9267 453.822 50.6734C455.469 50.402 457.35 50.2391 459.467 50.1848V48.5564C459.467 46.6928 459.069 45.3176 458.273 44.431C457.477 43.5264 456.328 43.074 454.826 43.074C453.741 43.074 452.836 43.2007 452.112 43.454C451.407 43.7073 450.782 43.9968 450.239 44.3225C449.697 44.6301 449.199 44.9105 448.747 45.1638C448.312 45.4171 447.824 45.5438 447.281 45.5438C446.811 45.5438 446.413 45.4262 446.087 45.191C445.761 44.9377 445.499 44.6482 445.3 44.3225L444.106 42.1784ZM479.025 58.9241C479.785 59.8469 480.609 60.4983 481.495 60.8782C482.4 61.2582 483.35 61.4482 484.345 61.4482C485.376 61.4482 486.299 61.2672 487.113 60.9054C487.946 60.5254 488.651 59.9464 489.23 59.1684C489.809 58.3722 490.253 57.368 490.56 56.1558C490.868 54.9254 491.022 53.4598 491.022 51.759C491.022 48.7012 490.515 46.4937 489.502 45.1367C488.488 43.7616 487.032 43.074 485.132 43.074C483.847 43.074 482.726 43.3726 481.767 43.9697C480.808 44.5486 479.894 45.3719 479.025 46.4394V58.9241ZM479.025 41.717C480.147 40.5409 481.387 39.6091 482.744 38.9215C484.119 38.2159 485.684 37.863 487.439 37.863C489.049 37.863 490.497 38.1797 491.781 38.8129C493.084 39.4462 494.188 40.36 495.093 41.5541C496.015 42.7302 496.721 44.1596 497.21 45.8423C497.698 47.5251 497.942 49.4159 497.942 51.5147C497.942 53.7764 497.662 55.8301 497.101 57.6756C496.54 59.5212 495.735 61.1044 494.686 62.4252C493.654 63.728 492.406 64.7412 490.94 65.465C489.475 66.1887 487.846 66.5506 486.055 66.5506C485.186 66.5506 484.399 66.4601 483.694 66.2792C482.988 66.1164 482.337 65.8811 481.739 65.5735C481.142 65.2659 480.591 64.895 480.084 64.4608C479.595 64.0084 479.125 63.5109 478.673 62.968L478.374 64.8407C478.265 65.3112 478.076 65.6459 477.804 65.8449C477.551 66.044 477.198 66.1435 476.746 66.1435H472.322V25.8126H479.025V41.717ZM509.905 25.8126V66.1435H503.201V25.8126H509.905ZM534.524 49.0178C534.524 48.1493 534.397 47.3351 534.144 46.5751C533.909 45.7971 533.547 45.1186 533.058 44.5396C532.57 43.9606 531.946 43.5083 531.186 43.1826C530.444 42.8388 529.575 42.6669 528.58 42.6669C526.644 42.6669 525.115 43.2188 523.994 44.3225C522.89 45.4262 522.184 46.9913 521.877 49.0178H534.524ZM521.741 53.0617C521.849 54.4911 522.103 55.7306 522.501 56.78C522.899 57.8113 523.424 58.6708 524.075 59.3584C524.726 60.0278 525.495 60.5344 526.382 60.8782C527.287 61.2039 528.282 61.3668 529.367 61.3668C530.453 61.3668 531.385 61.2401 532.163 60.9868C532.959 60.7335 533.647 60.453 534.226 60.1454C534.823 59.8378 535.338 59.5574 535.773 59.3041C536.225 59.0508 536.659 58.9241 537.075 58.9241C537.636 58.9241 538.052 59.1322 538.324 59.5483L540.251 61.991C539.509 62.8595 538.677 63.5923 537.754 64.1894C536.831 64.7684 535.863 65.2388 534.85 65.6007C533.855 65.9445 532.832 66.1887 531.783 66.3335C530.752 66.4782 529.747 66.5506 528.77 66.5506C526.834 66.5506 525.034 66.234 523.369 65.6007C521.705 64.9493 520.257 63.9994 519.027 62.7509C517.796 61.4844 516.828 59.9283 516.123 58.0827C515.417 56.2191 515.064 54.0659 515.064 51.6233C515.064 49.7235 515.372 47.9412 515.987 46.2766C516.602 44.5939 517.48 43.1373 518.62 41.907C519.778 40.6585 521.18 39.6724 522.826 38.9486C524.491 38.2249 526.364 37.863 528.445 37.863C530.2 37.863 531.819 38.1435 533.303 38.7044C534.786 39.2653 536.062 40.0885 537.13 41.1742C538.197 42.2417 539.029 43.5625 539.627 45.1367C540.242 46.6928 540.549 48.475 540.549 50.4834C540.549 51.4966 540.441 52.1842 540.224 52.5461C540.006 52.8898 539.59 53.0617 538.975 53.0617H521.741ZM571.101 37.863C573.164 37.863 575.036 38.1978 576.719 38.8672C578.42 39.5367 579.867 40.4866 581.062 41.717C582.274 42.9474 583.206 44.4491 583.857 46.2223C584.509 47.9955 584.834 49.9768 584.834 52.1661C584.834 54.3735 584.509 56.3638 583.857 58.137C583.206 59.9102 582.274 61.421 581.062 62.6695C579.867 63.918 578.42 64.8769 576.719 65.5464C575.036 66.2159 573.164 66.5506 571.101 66.5506C569.02 66.5506 567.13 66.2159 565.429 65.5464C563.728 64.8769 562.271 63.918 561.059 62.6695C559.865 61.421 558.933 59.9102 558.264 58.137C557.612 56.3638 557.287 54.3735 557.287 52.1661C557.287 49.9768 557.612 47.9955 558.264 46.2223C558.933 44.4491 559.865 42.9474 561.059 41.717C562.271 40.4866 563.728 39.5367 565.429 38.8672C567.13 38.1978 569.02 37.863 571.101 37.863ZM571.101 61.3939C573.417 61.3939 575.127 60.6159 576.231 59.0598C577.352 57.5037 577.913 55.2239 577.913 52.2204C577.913 49.2168 577.352 46.928 576.231 45.3538C575.127 43.7797 573.417 42.9926 571.101 42.9926C568.749 42.9926 567.003 43.7887 565.863 45.381C564.741 46.9551 564.18 49.2349 564.18 52.2204C564.18 55.2058 564.741 57.4857 565.863 59.0598C567.003 60.6159 568.749 61.3939 571.101 61.3939ZM596.218 41.717C596.779 41.1561 597.367 40.6404 597.982 40.17C598.615 39.6814 599.276 39.2743 599.963 38.9486C600.669 38.6049 601.42 38.3425 602.216 38.1616C603.012 37.9625 603.881 37.863 604.822 37.863C606.341 37.863 607.689 38.1254 608.865 38.6501C610.042 39.1567 611.019 39.8805 611.797 40.8213C612.593 41.7441 613.19 42.8569 613.588 44.1596C614.004 45.4443 614.212 46.8646 614.212 48.4207V66.1435H607.508V48.4207C607.508 46.7199 607.119 45.4081 606.341 44.4853C605.563 43.5444 604.378 43.074 602.786 43.074C601.628 43.074 600.542 43.3364 599.529 43.8611C598.516 44.3858 597.557 45.1005 596.652 46.0052V66.1435H589.949V38.2973H594.047C594.915 38.2973 595.485 38.7044 595.757 39.5186L596.218 41.717Z" fill="white"/>
</g>
</g>
<defs>
<clipPath id="clip0_3_2">
<rect width="740" height="227.692" fill="white"/>
</clipPath>
<clipPath id="clip1_3_2">
<rect width="740" height="227.692" fill="white"/>
</clipPath>
</defs>
</svg>
