<svg width="740" height="228" viewBox="0 0 740 228" fill="none" xmlns="http://www.w3.org/2000/svg">
<rect width="740" height="228" rx="23" fill="#009FFF"/>
<path d="M85.2321 28.3496L65.6396 101.436L115.501 114.782L121.73 91.5573L210.286 115.29L223.651 65.4464L85.2321 28.3496Z" fill="white"/>
<path d="M150.056 140.639L61.4995 116.907L48.1353 166.768L186.553 203.865L206.146 130.779L156.284 117.415L150.056 140.639Z" fill="white"/>
<path d="M302.01 95.84C310.97 95.84 318.18 92.27 323.22 87.93V66.65H301.59V74.21H314.89V84.08C311.74 86.46 307.26 88.07 302.29 88.07C291.72 88.07 284.65 80.16 284.65 69.52V69.38C284.65 59.44 291.86 51.11 301.52 51.11C308.03 51.11 311.95 53.21 315.94 56.57L321.4 50.06C316.15 45.65 310.69 43.2 301.8 43.2C286.47 43.2 275.62 55.31 275.62 69.52V69.66C275.62 84.5 286.05 95.84 302.01 95.84ZM352.007 95.84C359.077 95.84 364.047 93.04 367.757 88.7L362.717 84.29C359.707 87.3 356.557 88.91 352.147 88.91C346.337 88.91 341.787 85.34 340.877 78.83H369.297C369.367 77.99 369.367 77.22 369.367 76.45C369.367 65.39 363.207 55.87 351.097 55.87C340.177 55.87 332.407 64.83 332.407 75.82V75.96C332.407 87.79 340.947 95.84 352.007 95.84ZM340.737 73.23C341.577 67.07 345.497 62.8 351.027 62.8C357.047 62.8 360.407 67.35 361.037 73.23H340.737ZM391.821 95.63C395.041 95.63 397.421 94.93 399.591 93.74V86.81C397.841 87.65 396.091 88.14 394.131 88.14C391.051 88.14 389.231 86.67 389.231 83.17V63.92H399.731V56.64H389.231V46H380.831V56.64H375.861V63.92H380.831V84.5C380.831 92.83 385.381 95.63 391.821 95.63ZM431.854 50.48H441.024V42.36H431.854V50.48ZM432.204 95H440.674V56.64H432.204V95ZM465.785 95.63C469.005 95.63 471.385 94.93 473.555 93.74V86.81C471.805 87.65 470.055 88.14 468.095 88.14C465.015 88.14 463.195 86.67 463.195 83.17V63.92H473.695V56.64H463.195V46H454.795V56.64H449.825V63.92H454.795V84.5C454.795 92.83 459.345 95.63 465.785 95.63ZM523.879 95.84C535.639 95.84 544.319 86.81 544.319 75.89V75.75C544.319 64.76 535.709 55.87 524.019 55.87C512.259 55.87 503.579 64.97 503.579 75.89V76.03C503.579 86.95 512.189 95.84 523.879 95.84ZM524.019 88.49C517.019 88.49 511.979 82.75 511.979 75.89V75.75C511.979 68.96 516.669 63.22 523.879 63.22C530.879 63.22 535.919 69.03 535.919 75.89V76.03C535.919 82.82 531.229 88.49 524.019 88.49ZM554.009 95H562.409V73.3C562.409 67.21 566.119 63.57 571.439 63.57C576.829 63.57 579.909 67.07 579.909 73.16V95H588.379V70.64C588.379 61.68 583.269 55.87 574.589 55.87C568.569 55.87 564.929 59.02 562.409 62.66V56.64H554.009V95Z" fill="white"/>
<path d="M322.48 153.39L334.771 175.948H311.965L301.587 156.67H291.756V175.948H271V107.611H308.961C324.664 107.611 334.634 116.351 334.634 132.069C334.634 142.183 329.991 149.428 322.48 153.39ZM291.756 125.371V138.902H306.503C310.873 138.902 313.604 136.305 313.604 132.069C313.604 127.832 310.873 125.371 306.503 125.371H291.756ZM400.725 181L338.594 164.189L355.254 102L386.318 110.406L417.384 118.811L400.725 181ZM388.981 135.212L371.639 130.428L366.997 147.786L384.339 152.571L388.981 135.212ZM488.528 156.67C488.528 169.791 480.199 175.948 467.226 175.948H426.534V107.611H465.861C478.833 107.611 487.163 114.308 487.163 126.062C487.163 133.443 484.432 138.364 479.243 141.781C485.114 144.369 488.528 149.564 488.528 156.67ZM446.744 124.012V134.126H460.255C463.942 134.126 466.127 132.486 466.127 128.932C466.127 125.652 463.942 124.012 460.255 124.012H446.744ZM446.744 159.548H461.901C465.451 159.548 467.506 157.634 467.506 154.352C467.506 150.8 465.458 149.16 461.901 149.16H446.744V159.548ZM498.77 107.611H519.523V155.715H549.29V175.948H498.767L498.77 107.611ZM625.627 141.781C625.627 148.809 623.545 155.68 619.643 161.524C615.742 167.368 610.197 171.922 603.71 174.612C597.223 177.301 590.084 178.005 583.197 176.634C576.31 175.263 569.984 171.878 565.019 166.908C560.054 161.939 556.672 155.607 555.302 148.714C553.932 141.821 554.636 134.676 557.323 128.182C560.01 121.689 564.56 116.139 570.399 112.234C576.237 108.33 583.102 106.246 590.123 106.246C594.788 106.236 599.408 107.149 603.719 108.931C608.031 110.713 611.948 113.33 615.246 116.63C618.545 119.931 621.16 123.852 622.941 128.166C624.723 132.481 625.635 137.105 625.627 141.774V141.781ZM604.871 141.781C604.871 133.306 598.18 126.609 590.123 126.609C582.067 126.609 575.375 133.306 575.375 141.781C575.375 150.256 582.067 156.952 590.123 156.952C598.18 156.952 604.871 150.246 604.871 141.774V141.781ZM675.604 140.686L698 175.948H673.277L660.994 155.85L648.294 175.948H623.169L646.519 141.505L625.081 107.611H649.796L661.13 126.062L672.054 107.611H696.633L675.604 140.686Z" fill="white"/>
</svg>
